{
	"asset":{
		"generator":"Khronos glTF Blender I/O v4.2.70",
		"version":"2.0"
	},
	"extensionsUsed":[
		"KHR_materials_specular",
		"KHR_materials_ior"
	],
	"scene":0,
	"scenes":[
		{
			"name":"Scene",
			"nodes":[
				0,
				1,
				2,
				3,
				4,
				5,
				6,
				7,
				8,
				9,
				10,
				11
			]
		}
	],
	"nodes":[
		{
			"mesh":0,
			"name":"Sole"
		},
		{
			"mesh":1,
			"name":"Shoe-Fabric"
		},
		{
			"mesh":2,
			"name":"Shoe-Plastic"
		},
		{
			"mesh":3,
			"name":"Inner-Shoe"
		},
		{
			"mesh":4,
			"name":"Shoe-Fabric.001"
		},
		{
			"mesh":5,
			"name":"Shoe-Fabric.003",
			"rotation":[
				-0.9103645086288452,
				0,
				0,
				0.41380739212036133
			],
			"scale":[
				1,
				0.8235547542572021,
				0.7599584460258484
			]
		},
		{
			"name":"hree",
			"translation":[
				1.9703561067581177,
				0,
				0
			]
		},
		{
			"mesh":6,
			"name":"Cube.001"
		},
		{
			"name":"One",
			"translation":[
				1.9703561067581177,
				0,
				0
			]
		},
		{
			"name":"two",
			"translation":[
				1.9703561067581177,
				0,
				0
			]
		},
		{
			"mesh":7,
			"name":"Cube.002"
		},
		{
			"mesh":8,
			"name":"Cube.003"
		}
	],
	"materials":[
		{
			"doubleSided":true,
			"extensions":{
				"KHR_materials_specular":{
					"specularFactor":0.6079999804496765
				},
				"KHR_materials_ior":{
					"ior":1.4500000476837158
				}
			},
			"name":"Rubber",
			"normalTexture":{
				"index":0
			},
			"pbrMetallicRoughness":{
				"baseColorFactor":[
					0.6499986052513123,
					0.6499986052513123,
					0.6499986052513123,
					1
				],
				"metallicFactor":0,
				"metallicRoughnessTexture":{
					"index":1
				}
			}
		},
		{
			"doubleSided":true,
			"name":"Rubber Sole",
			"normalTexture":{
				"index":2
			},
			"pbrMetallicRoughness":{
				"baseColorFactor":[
					0.021219007670879364,
					0.11953846365213394,
					0.1247718334197998,
					1
				],
				"metallicFactor":0,
				"metallicRoughnessTexture":{
					"index":3
				}
			}
		},
		{
			"doubleSided":true,
			"extensions":{
				"KHR_materials_specular":{
					"specularFactor":-3.999999761581421,
					"specularTexture":{
						"index":4
					}
				},
				"KHR_materials_ior":{
					"ior":1.4500000476837158
				}
			},
			"name":"Fabric-Black",
			"normalTexture":{
				"index":5,
				"scale":0.949999988079071
			},
			"pbrMetallicRoughness":{
				"baseColorTexture":{
					"index":6
				},
				"metallicFactor":0,
				"roughnessFactor":0.800000011920929
			}
		},
		{
			"doubleSided":true,
			"extensions":{
				"KHR_materials_specular":{
					"specularFactor":-3.999999761581421,
					"specularTexture":{
						"index":7
					}
				},
				"KHR_materials_ior":{
					"ior":1.4500000476837158
				}
			},
			"name":"Fabric-Yellow",
			"normalTexture":{
				"index":8,
				"scale":0.699999988079071
			},
			"pbrMetallicRoughness":{
				"baseColorTexture":{
					"index":9
				},
				"metallicFactor":0,
				"roughnessFactor":0.800000011920929
			}
		},
		{
			"doubleSided":true,
			"name":"Shoe-Plastic"
		},
		{
			"doubleSided":true,
			"name":"fabric"
		},
		{
			"doubleSided":true,
			"name":"Sti",
			"pbrMetallicRoughness":{
				"baseColorFactor":[
					0.021219007670879364,
					0.11953846365213394,
					0.1247718334197998,
					1
				],
				"metallicFactor":0,
				"roughnessFactor":0.8318182229995728
			}
		},
		{
			"doubleSided":true,
			"name":"Sti-white",
			"pbrMetallicRoughness":{
				"baseColorFactor":[
					0.012768424116075039,
					0.06483049690723419,
					0.06754804402589798,
					1
				],
				"metallicFactor":0,
				"roughnessFactor":0.5
			}
		}
	],
	"meshes":[
		{
			"name":"Plane",
			"primitives":[
				{
					"attributes":{
						"POSITION":0,
						"NORMAL":1,
						"TEXCOORD_0":2
					},
					"indices":3,
					"material":0
				},
				{
					"attributes":{
						"POSITION":4,
						"NORMAL":5,
						"TEXCOORD_0":6
					},
					"indices":7,
					"material":1
				}
			]
		},
		{
			"name":"Plane.004",
			"primitives":[
				{
					"attributes":{
						"POSITION":8,
						"NORMAL":9,
						"TEXCOORD_0":10
					},
					"indices":11,
					"material":2
				},
				{
					"attributes":{
						"POSITION":12,
						"NORMAL":13,
						"TEXCOORD_0":14
					},
					"indices":15,
					"material":3
				}
			]
		},
		{
			"name":"Plane.007",
			"primitives":[
				{
					"attributes":{
						"POSITION":16,
						"NORMAL":17,
						"TEXCOORD_0":18
					},
					"indices":19,
					"material":4
				}
			]
		},
		{
			"name":"Plane.008",
			"primitives":[
				{
					"attributes":{
						"POSITION":20,
						"NORMAL":21,
						"TEXCOORD_0":22
					},
					"indices":23,
					"material":5
				}
			]
		},
		{
			"name":"Plane.005",
			"primitives":[
				{
					"attributes":{
						"POSITION":24,
						"NORMAL":25,
						"TEXCOORD_0":26
					},
					"indices":27,
					"material":5
				}
			]
		},
		{
			"name":"Plane.009",
			"primitives":[
				{
					"attributes":{
						"POSITION":28,
						"NORMAL":29,
						"TEXCOORD_0":30
					},
					"indices":31,
					"material":5
				}
			]
		},
		{
			"name":"Cube.004",
			"primitives":[
				{
					"attributes":{
						"POSITION":32,
						"NORMAL":33,
						"TEXCOORD_0":34
					},
					"indices":35,
					"material":6
				}
			]
		},
		{
			"name":"Cube.005",
			"primitives":[
				{
					"attributes":{
						"POSITION":36,
						"NORMAL":37,
						"TEXCOORD_0":38
					},
					"indices":35,
					"material":7
				}
			]
		},
		{
			"name":"Cube.006",
			"primitives":[
				{
					"attributes":{
						"POSITION":39,
						"NORMAL":40,
						"TEXCOORD_0":41
					},
					"indices":35,
					"material":6
				}
			]
		}
	],
	"textures":[
		{
			"sampler":0,
			"source":0
		},
		{
			"sampler":0,
			"source":1
		},
		{
			"sampler":0,
			"source":2
		},
		{
			"sampler":0,
			"source":1
		},
		{
			"sampler":0,
			"source":3
		},
		{
			"sampler":0,
			"source":4
		},
		{
			"sampler":0,
			"source":5
		},
		{
			"sampler":0,
			"source":3
		},
		{
			"sampler":0,
			"source":4
		},
		{
			"sampler":0,
			"source":5
		}
	],
	"images":[
		{
			"mimeType":"image/jpeg",
			"name":"RUBBER 1 NORM",
			"uri":"RUBBER%201%20NORM.jpg"
		},
		{
			"mimeType":"image/png",
			"name":"RUBBER 1 & 2 ROUGH",
			"uri":"RUBBER%201%20%202%20ROUGH.png"
		},
		{
			"mimeType":"image/png",
			"name":"Rubber Sole height",
			"uri":"Rubber%20Sole%20height.png"
		},
		{
			"mimeType":"image/png",
			"name":"Shoe Fabric SPEC",
			"uri":"Shoe%20Fabric%20SPEC.png"
		},
		{
			"mimeType":"image/png",
			"name":"Shoe Fabric NORM",
			"uri":"Shoe%20Fabric%20NORM.png"
		},
		{
			"mimeType":"image/jpeg",
			"name":"Shoe Fabric COL",
			"uri":"Shoe%20Fabric%20COL.jpg"
		}
	],
	"accessors":[
		{
			"bufferView":0,
			"componentType":5126,
			"count":9497,
			"max":[
				2.603440761566162,
				0.7201982736587524,
				2.2022061347961426
			],
			"min":[
				1.001049518585205,
				0.0035565500147640705,
				-2.1620824337005615
			],
			"type":"VEC3"
		},
		{
			"bufferView":1,
			"componentType":5126,
			"count":9497,
			"type":"VEC3"
		},
		{
			"bufferView":2,
			"componentType":5126,
			"count":9497,
			"type":"VEC2"
		},
		{
			"bufferView":3,
			"componentType":5123,
			"count":52032,
			"type":"SCALAR"
		},
		{
			"bufferView":4,
			"componentType":5126,
			"count":3784,
			"max":[
				2.579184055328369,
				0.5879570245742798,
				2.205634593963623
			],
			"min":[
				1.0043911933898926,
				-0.008974344469606876,
				-2.1620824337005615
			],
			"type":"VEC3"
		},
		{
			"bufferView":5,
			"componentType":5126,
			"count":3784,
			"type":"VEC3"
		},
		{
			"bufferView":6,
			"componentType":5126,
			"count":3784,
			"type":"VEC2"
		},
		{
			"bufferView":7,
			"componentType":5123,
			"count":21696,
			"type":"SCALAR"
		},
		{
			"bufferView":8,
			"componentType":5126,
			"count":16316,
			"max":[
				2.5891146659851074,
				2.229857921600342,
				2.150043249130249
			],
			"min":[
				0.9938331842422485,
				0.22444403171539307,
				-2.0243732929229736
			],
			"type":"VEC3"
		},
		{
			"bufferView":9,
			"componentType":5126,
			"count":16316,
			"type":"VEC3"
		},
		{
			"bufferView":10,
			"componentType":5126,
			"count":16316,
			"type":"VEC2"
		},
		{
			"bufferView":11,
			"componentType":5123,
			"count":95712,
			"type":"SCALAR"
		},
		{
			"bufferView":12,
			"componentType":5126,
			"count":10239,
			"max":[
				2.559117317199707,
				2.1529226303100586,
				2.1174302101135254
			],
			"min":[
				1.0238304138183594,
				0.27646559476852417,
				-1.9859399795532227
			],
			"type":"VEC3"
		},
		{
			"bufferView":13,
			"componentType":5126,
			"count":10239,
			"type":"VEC3"
		},
		{
			"bufferView":14,
			"componentType":5126,
			"count":10239,
			"type":"VEC2"
		},
		{
			"bufferView":15,
			"componentType":5123,
			"count":59904,
			"type":"SCALAR"
		},
		{
			"bufferView":16,
			"componentType":5126,
			"count":14540,
			"max":[
				2.5266635417938232,
				1.8202636241912842,
				0.21866479516029358
			],
			"min":[
				0.9871023893356323,
				0.33887141942977905,
				-1.960639238357544
			],
			"type":"VEC3"
		},
		{
			"bufferView":17,
			"componentType":5126,
			"count":14540,
			"type":"VEC3"
		},
		{
			"bufferView":18,
			"componentType":5126,
			"count":14540,
			"type":"VEC2"
		},
		{
			"bufferView":19,
			"componentType":5123,
			"count":87240,
			"type":"SCALAR"
		},
		{
			"bufferView":20,
			"componentType":5126,
			"count":29,
			"max":[
				2.562122344970703,
				0.7455736398696899,
				2.1144421100616455
			],
			"min":[
				1.0216460227966309,
				0.29496175050735474,
				-2.0587236881256104
			],
			"type":"VEC3"
		},
		{
			"bufferView":21,
			"componentType":5126,
			"count":29,
			"type":"VEC3"
		},
		{
			"bufferView":22,
			"componentType":5126,
			"count":29,
			"type":"VEC2"
		},
		{
			"bufferView":23,
			"componentType":5123,
			"count":81,
			"type":"SCALAR"
		},
		{
			"bufferView":24,
			"componentType":5126,
			"count":156,
			"max":[
				1.7162134647369385,
				2.210400104522705,
				-0.06990126520395279
			],
			"min":[
				1.5247728824615479,
				1.732269048690796,
				-0.5163882970809937
			],
			"type":"VEC3"
		},
		{
			"bufferView":25,
			"componentType":5126,
			"count":156,
			"type":"VEC3"
		},
		{
			"bufferView":26,
			"componentType":5126,
			"count":156,
			"type":"VEC2"
		},
		{
			"bufferView":27,
			"componentType":5123,
			"count":480,
			"type":"SCALAR"
		},
		{
			"bufferView":28,
			"componentType":5126,
			"count":153,
			"max":[
				1.716213345527649,
				0.8334306478500366,
				3.342564821243286
			],
			"min":[
				1.5247727632522583,
				0.29311880469322205,
				2.799994707107544
			],
			"type":"VEC3"
		},
		{
			"bufferView":29,
			"componentType":5126,
			"count":153,
			"type":"VEC3"
		},
		{
			"bufferView":30,
			"componentType":5126,
			"count":153,
			"type":"VEC2"
		},
		{
			"bufferView":31,
			"componentType":5123,
			"count":480,
			"type":"SCALAR"
		},
		{
			"bufferView":32,
			"componentType":5126,
			"count":30,
			"max":[
				1.977310299873352,
				0.004838466178625822,
				0.002992022316902876
			],
			"min":[
				1.9634019136428833,
				-0.004694361239671707,
				-0.002992022316902876
			],
			"type":"VEC3"
		},
		{
			"bufferView":33,
			"componentType":5126,
			"count":30,
			"type":"VEC3"
		},
		{
			"bufferView":34,
			"componentType":5126,
			"count":30,
			"type":"VEC2"
		},
		{
			"bufferView":35,
			"componentType":5123,
			"count":84,
			"type":"SCALAR"
		},
		{
			"bufferView":36,
			"componentType":5126,
			"count":30,
			"max":[
				1.977310299873352,
				0.004838466178625822,
				0.002992022316902876
			],
			"min":[
				1.9634019136428833,
				-0.004694361239671707,
				-0.002992022316902876
			],
			"type":"VEC3"
		},
		{
			"bufferView":37,
			"componentType":5126,
			"count":30,
			"type":"VEC3"
		},
		{
			"bufferView":38,
			"componentType":5126,
			"count":30,
			"type":"VEC2"
		},
		{
			"bufferView":39,
			"componentType":5126,
			"count":30,
			"max":[
				1.977310299873352,
				0.004838466178625822,
				0.002992022316902876
			],
			"min":[
				1.9634019136428833,
				-0.004694361239671707,
				-0.002992022316902876
			],
			"type":"VEC3"
		},
		{
			"bufferView":40,
			"componentType":5126,
			"count":30,
			"type":"VEC3"
		},
		{
			"bufferView":41,
			"componentType":5126,
			"count":30,
			"type":"VEC2"
		}
	],
	"bufferViews":[
		{
			"buffer":0,
			"byteLength":113964,
			"byteOffset":0,
			"target":34962
		},
		{
			"buffer":0,
			"byteLength":113964,
			"byteOffset":113964,
			"target":34962
		},
		{
			"buffer":0,
			"byteLength":75976,
			"byteOffset":227928,
			"target":34962
		},
		{
			"buffer":0,
			"byteLength":104064,
			"byteOffset":303904,
			"target":34963
		},
		{
			"buffer":0,
			"byteLength":45408,
			"byteOffset":407968,
			"target":34962
		},
		{
			"buffer":0,
			"byteLength":45408,
			"byteOffset":453376,
			"target":34962
		},
		{
			"buffer":0,
			"byteLength":30272,
			"byteOffset":498784,
			"target":34962
		},
		{
			"buffer":0,
			"byteLength":43392,
			"byteOffset":529056,
			"target":34963
		},
		{
			"buffer":0,
			"byteLength":195792,
			"byteOffset":572448,
			"target":34962
		},
		{
			"buffer":0,
			"byteLength":195792,
			"byteOffset":768240,
			"target":34962
		},
		{
			"buffer":0,
			"byteLength":130528,
			"byteOffset":964032,
			"target":34962
		},
		{
			"buffer":0,
			"byteLength":191424,
			"byteOffset":1094560,
			"target":34963
		},
		{
			"buffer":0,
			"byteLength":122868,
			"byteOffset":1285984,
			"target":34962
		},
		{
			"buffer":0,
			"byteLength":122868,
			"byteOffset":1408852,
			"target":34962
		},
		{
			"buffer":0,
			"byteLength":81912,
			"byteOffset":1531720,
			"target":34962
		},
		{
			"buffer":0,
			"byteLength":119808,
			"byteOffset":1613632,
			"target":34963
		},
		{
			"buffer":0,
			"byteLength":174480,
			"byteOffset":1733440,
			"target":34962
		},
		{
			"buffer":0,
			"byteLength":174480,
			"byteOffset":1907920,
			"target":34962
		},
		{
			"buffer":0,
			"byteLength":116320,
			"byteOffset":2082400,
			"target":34962
		},
		{
			"buffer":0,
			"byteLength":174480,
			"byteOffset":2198720,
			"target":34963
		},
		{
			"buffer":0,
			"byteLength":348,
			"byteOffset":2373200,
			"target":34962
		},
		{
			"buffer":0,
			"byteLength":348,
			"byteOffset":2373548,
			"target":34962
		},
		{
			"buffer":0,
			"byteLength":232,
			"byteOffset":2373896,
			"target":34962
		},
		{
			"buffer":0,
			"byteLength":162,
			"byteOffset":2374128,
			"target":34963
		},
		{
			"buffer":0,
			"byteLength":1872,
			"byteOffset":2374292,
			"target":34962
		},
		{
			"buffer":0,
			"byteLength":1872,
			"byteOffset":2376164,
			"target":34962
		},
		{
			"buffer":0,
			"byteLength":1248,
			"byteOffset":2378036,
			"target":34962
		},
		{
			"buffer":0,
			"byteLength":960,
			"byteOffset":2379284,
			"target":34963
		},
		{
			"buffer":0,
			"byteLength":1836,
			"byteOffset":2380244,
			"target":34962
		},
		{
			"buffer":0,
			"byteLength":1836,
			"byteOffset":2382080,
			"target":34962
		},
		{
			"buffer":0,
			"byteLength":1224,
			"byteOffset":2383916,
			"target":34962
		},
		{
			"buffer":0,
			"byteLength":960,
			"byteOffset":2385140,
			"target":34963
		},
		{
			"buffer":0,
			"byteLength":360,
			"byteOffset":2386100,
			"target":34962
		},
		{
			"buffer":0,
			"byteLength":360,
			"byteOffset":2386460,
			"target":34962
		},
		{
			"buffer":0,
			"byteLength":240,
			"byteOffset":2386820,
			"target":34962
		},
		{
			"buffer":0,
			"byteLength":168,
			"byteOffset":2387060,
			"target":34963
		},
		{
			"buffer":0,
			"byteLength":360,
			"byteOffset":2387228,
			"target":34962
		},
		{
			"buffer":0,
			"byteLength":360,
			"byteOffset":2387588,
			"target":34962
		},
		{
			"buffer":0,
			"byteLength":240,
			"byteOffset":2387948,
			"target":34962
		},
		{
			"buffer":0,
			"byteLength":360,
			"byteOffset":2388188,
			"target":34962
		},
		{
			"buffer":0,
			"byteLength":360,
			"byteOffset":2388548,
			"target":34962
		},
		{
			"buffer":0,
			"byteLength":240,
			"byteOffset":2388908,
			"target":34962
		}
	],
	"samplers":[
		{
			"magFilter":9729,
			"minFilter":9987
		}
	],
	"buffers":[
		{
			"byteLength":2389148,
			"uri":"Shoes-Make.bin"
		}
	]
}
