<svg width="24" height="24" viewBox="0 0 24 24" fill="none" xmlns="http://www.w3.org/2000/svg">
<path d="M0.947368 24C0.678526 24 0.453474 23.9042 0.272211 23.7127C0.0907369 23.5213 0 23.2838 0 23C0 22.7162 0.0907369 22.4787 0.272211 22.2873C0.453474 22.0958 0.678526 22 0.947368 22H11.0526V7.177C10.4811 7.01967 9.98105 6.72133 9.55263 6.282C9.12421 5.84267 8.83147 5.30422 8.67442 4.66667H4.494L7.93105 13.459C8.02832 13.6863 8.08337 13.9192 8.09621 14.1577C8.10926 14.3961 8.09474 14.6359 8.05263 14.877C7.86316 15.7966 7.37042 16.5042 6.57442 17C5.77863 17.4958 4.95558 17.7437 4.10526 17.7437C3.25516 17.7437 2.43211 17.4958 1.63611 17C0.840105 16.5042 0.347368 15.7966 0.157895 14.877C0.115789 14.6359 0.101263 14.3961 0.114316 14.1577C0.127158 13.9192 0.18221 13.6863 0.279474 13.459L3.71653 4.66667H2.21053C1.94168 4.66667 1.71663 4.57089 1.53537 4.37933C1.35389 4.188 1.26316 3.95044 1.26316 3.66667C1.26316 3.38289 1.35389 3.14533 1.53537 2.954C1.71663 2.76244 1.94168 2.66667 2.21053 2.66667H8.67442C8.87042 1.906 9.27242 1.27145 9.88042 0.763001C10.4886 0.254334 11.1952 0 12 0C12.8048 0 13.5114 0.254334 14.1196 0.763001C14.7276 1.27145 15.1296 1.906 15.3256 2.66667H21.7895C22.0583 2.66667 22.2834 2.76244 22.4646 2.954C22.6461 3.14533 22.7368 3.38289 22.7368 3.66667C22.7368 3.95044 22.6461 4.188 22.4646 4.37933C22.2834 4.57089 22.0583 4.66667 21.7895 4.66667H20.2835L23.7205 13.459C23.8178 13.6863 23.8728 13.9192 23.8857 14.1577C23.8987 14.3961 23.8842 14.6359 23.8421 14.877C23.6526 15.7966 23.1599 16.5042 22.3639 17C21.5679 17.4958 20.7448 17.7437 19.8947 17.7437C19.0444 17.7437 18.2214 17.4958 17.4256 17C16.6296 16.5042 16.1368 15.7966 15.9474 14.877C15.9053 14.6359 15.8907 14.3961 15.9038 14.1577C15.9166 13.9192 15.9717 13.6863 16.0689 13.459L19.506 4.66667H15.3256C15.1685 5.30422 14.8758 5.84267 14.4474 6.282C14.0189 6.72133 13.5189 7.01967 12.9474 7.177V22H23.0526C23.3215 22 23.5465 22.0958 23.7278 22.2873C23.9093 22.4787 24 22.7162 24 23C24 23.2838 23.9093 23.5213 23.7278 23.7127C23.5465 23.9042 23.3215 24 23.0526 24H0.947368ZM17.4414 14.077H22.3481L19.8947 7.82833L17.4414 14.077ZM1.65189 14.077H6.55863L4.10526 7.82833L1.65189 14.077ZM12 5.33333C12.4389 5.33333 12.8118 5.17133 13.1185 4.84733C13.4255 4.52356 13.5789 4.13 13.5789 3.66667C13.5789 3.20333 13.4255 2.80978 13.1185 2.486C12.8118 2.162 12.4389 2 12 2C11.5611 2 11.1882 2.162 10.8815 2.486C10.5745 2.80978 10.4211 3.20333 10.4211 3.66667C10.4211 4.13 10.5745 4.52356 10.8815 4.84733C11.1882 5.17133 11.5611 5.33333 12 5.33333Z" fill="#D6D6D6"/>
</svg>
