<svg width="24" height="24" viewBox="0 0 24 24" fill="none" xmlns="http://www.w3.org/2000/svg">
<path d="M4.03537 8.81236C4.81712 8.81236 5.55878 8.95411 6.26035 9.23762C6.96191 9.52112 7.60335 9.93625 8.18465 10.483L19.6703 21.57H20.3919C20.7327 21.57 21.0183 21.4535 21.2488 21.2207C21.4794 20.9878 21.5946 20.6992 21.5946 20.355C21.5946 20.193 21.5796 20.0208 21.5495 19.8386C21.5195 19.6563 21.4142 19.4741 21.2338 19.2918L15.7315 13.7332L13.5967 7.23285L11.3718 7.7796C10.6101 7.9821 9.91852 7.84035 9.29713 7.35435C8.67575 6.86834 8.36505 6.23046 8.36505 5.44071V2.88918L7.52317 2.46393L2.89282 8.72124C2.87277 8.74149 2.86275 8.75667 2.86275 8.7668C2.86275 8.77692 2.85273 8.79211 2.83268 8.81236H4.03537ZM4.03537 11.2424H2.65228C2.71242 11.3841 2.78758 11.5158 2.87779 11.6373C2.96799 11.7588 3.07322 11.8701 3.19349 11.9714L12.9353 20.9321C13.1558 21.1548 13.4063 21.3169 13.6869 21.4181C13.9676 21.5194 14.2582 21.57 14.5589 21.57H16.1825L6.53095 12.2448C6.19019 11.9005 5.80433 11.6474 5.37336 11.4854C4.9424 11.3234 4.4964 11.2424 4.03537 11.2424ZM14.5589 24C13.9576 24 13.3863 23.8886 12.8451 23.6659C12.3039 23.4431 11.8027 23.1292 11.3417 22.7242L1.56986 13.7635C0.647801 12.913 0.131647 11.8701 0.0214008 10.6349C-0.0888457 9.39962 0.22686 8.27573 0.968518 7.26322L5.59887 1.00592C5.93963 0.540162 6.39565 0.231347 6.96693 0.0794702C7.5382 -0.0724062 8.08442 -0.00659309 8.60559 0.276909L9.44747 0.702163C9.86841 0.924915 10.1941 1.22867 10.4247 1.61342C10.6552 1.99818 10.7704 2.42343 10.7704 2.88918V5.44071L12.9954 4.86358C13.5967 4.70157 14.178 4.77751 14.7393 5.09139C15.3006 5.40527 15.6814 5.85583 15.8819 6.44309L17.8362 12.3966L22.9476 17.5604C23.3485 17.9654 23.6242 18.4008 23.7745 18.8666C23.9248 19.3323 24 19.8285 24 20.355C24 21.3675 23.6492 22.2281 22.9476 22.9369C22.2461 23.6456 21.3942 24 20.3919 24H14.5589Z" fill="#D6D6D6"/>
</svg>
