<svg width="34" height="25" viewBox="0 0 34 25" fill="none" xmlns="http://www.w3.org/2000/svg">
<path d="M3.96047 8.87144C4.72771 8.87144 5.4556 9.01056 6.14414 9.2888C6.83269 9.56704 7.46221 9.97447 8.03272 10.5111L19.3052 21.3923H20.0134C20.3479 21.3923 20.6282 21.278 20.8544 21.0494C21.0807 20.8209 21.1938 20.5377 21.1938 20.1998C21.1938 20.0408 21.179 19.8719 21.1495 19.693C21.12 19.5141 21.0167 19.3353 20.8397 19.1564L15.4395 13.7009L13.3444 7.32125L11.1607 7.85785C10.4131 8.0566 9.73442 7.91748 9.12456 7.44049C8.51471 6.96351 8.20978 6.33747 8.20978 5.56237V3.05821L7.38352 2.64085L2.83912 8.78201C2.81945 8.80188 2.80961 8.81679 2.80961 8.82673C2.80961 8.83666 2.79978 8.85157 2.7801 8.87144H3.96047ZM3.96047 11.2564H2.60305C2.66207 11.3955 2.73584 11.5247 2.82437 11.6439C2.9129 11.7632 3.01618 11.8725 3.13421 11.9718L12.6952 20.7662C12.9116 20.9848 13.1575 21.1438 13.4329 21.2432C13.7083 21.3426 13.9936 21.3923 14.2887 21.3923H15.8821L6.40972 12.2401C6.07529 11.9023 5.69659 11.6538 5.27362 11.4949C4.85066 11.3359 4.41294 11.2564 3.96047 11.2564ZM14.2887 23.7772C13.6985 23.7772 13.1378 23.6679 12.6066 23.4492C12.0755 23.2306 11.5837 22.9226 11.1312 22.5251L1.54072 13.7307C0.635777 12.896 0.129204 11.8725 0.0210035 10.6601C-0.0871965 9.4478 0.222649 8.34477 0.95054 7.35106L5.49494 1.2099C5.82938 0.752792 6.27693 0.449709 6.83761 0.300651C7.39828 0.151594 7.93436 0.216186 8.44585 0.494426L9.27211 0.911786C9.68523 1.1304 10.0049 1.42852 10.2312 1.80613C10.4574 2.18374 10.5705 2.6011 10.5705 3.05821V5.56237L12.7542 4.99595C13.3444 4.83696 13.9149 4.91149 14.4657 5.21954C15.0165 5.52759 15.3903 5.9698 15.5871 6.54615L17.5051 12.3892L22.5217 17.4571C22.9151 17.8546 23.1856 18.2819 23.3332 18.739C23.4807 19.1961 23.5545 19.6831 23.5545 20.1998C23.5545 21.1935 23.2102 22.0382 22.5217 22.7338C21.8331 23.4294 20.9971 23.7772 20.0134 23.7772H14.2887Z" fill="#676767"/>
<path d="M30.431 24.1307C30.6262 24.326 30.9428 24.326 31.1381 24.1307L32.7411 22.5277C32.9364 22.3325 32.9364 22.0159 32.7411 21.8206L25.8334 14.913C26.2025 14.3839 26.5017 13.7969 26.7323 13.1544C27.0201 12.3527 27.1625 11.5032 27.1625 10.6096C27.1625 8.39995 26.3916 6.51139 24.8548 4.97465C23.3181 3.4379 21.4295 2.66699 19.2199 2.66699C17.0103 2.66699 15.1217 3.4379 13.585 4.97465C12.0483 6.51139 11.2773 8.39995 11.2773 10.6096C11.2773 12.8192 12.0483 14.7077 13.585 16.2445C15.1217 17.7812 17.0103 18.5521 19.2199 18.5521C20.1136 18.5521 20.963 18.4098 21.7647 18.122C22.4073 17.8913 22.9943 17.5921 23.5233 17.2231L30.431 24.1307ZM22.5161 13.9057C21.609 14.8128 20.5201 15.2621 19.2199 15.2621C17.9197 15.2621 16.8308 14.8128 15.9237 13.9057C15.0167 12.9987 14.5674 11.9097 14.5674 10.6096C14.5674 9.30939 15.0167 8.22045 15.9237 7.31339C16.8308 6.40634 17.9197 5.95701 19.2199 5.95701C20.5201 5.95701 21.609 6.40634 22.5161 7.31339C23.4231 8.22045 23.8725 9.30939 23.8725 10.6096C23.8725 11.9097 23.4231 12.9987 22.5161 13.9057Z" fill="#676767" stroke="#0D0D0D" stroke-linejoin="round"/>
</svg>
